<?xml version="1.0" standalone="no"?>
<!DOCTYPE svg PUBLIC "-//W3C//DTD SVG 20010904//EN"
 "http://www.w3.org/TR/2001/REC-SVG-20010904/DTD/svg10.dtd">
<svg version="1.0" xmlns="http://www.w3.org/2000/svg"
 width="1024.000000pt" height="1024.000000pt" viewBox="0 0 1024.000000 1024.000000"
 preserveAspectRatio="xMidYMid meet">
<metadata>
Created by potrace 1.14, written by Peter Selinger 2001-2017
</metadata>
<g transform="translate(0.000000,1024.000000) scale(0.100000,-0.100000)"
fill="#000000" stroke="none">
<path d="M772 6456 c-3 -5 -5 -68 -5 -140 0 -72 -3 -136 -8 -142 -6 -7 -54
-11 -139 -10 -72 1 -130 -2 -130 -6 0 -4 -6 -5 -12 -3 -10 4 -13 -239 -13
-1194 l0 -1199 40 2 c22 1 46 -2 53 -7 6 -5 12 -6 12 -1 0 12 123 11 132 -1 5
-6 8 -6 8 1 0 8 17 10 53 7 28 -2 57 -4 62 -4 82 7 203 5 213 -2 6 -5 12 -6
12 -1 0 12 123 11 132 -1 5 -6 8 -6 8 1 0 8 17 10 53 7 28 -2 57 -4 62 -4 82
7 203 5 213 -2 6 -5 12 -6 12 -1 0 12 123 11 132 -1 5 -6 8 -6 8 1 0 8 17 10
53 7 28 -2 57 -4 62 -4 82 7 203 5 213 -2 6 -5 12 -6 12 -1 0 12 123 11 132
-1 5 -6 8 -6 8 1 0 8 17 10 53 7 28 -2 57 -4 62 -4 82 7 203 5 213 -2 6 -5 12
-6 12 -1 0 11 131 11 148 0 7 -4 12 -4 12 1 0 12 124 10 132 -2 5 -6 8 -6 8 1
0 8 17 10 53 7 28 -2 57 -4 62 -4 82 7 203 5 213 -2 6 -5 12 -6 12 -1 0 12
123 11 132 -1 5 -7 8 -7 8 0 0 13 160 13 160 0 0 -5 4 -4 9 3 4 8 12 14 17 15
5 1 9 23 10 48 1 26 4 54 7 62 3 8 3 18 0 21 -5 5 -7 202 -2 216 1 3 0 10 -1
15 -7 32 -6 56 2 61 4 3 6 10 2 15 -5 9 -8 197 -3 224 1 6 0 14 -1 20 -2 12
-2 526 1 540 1 6 0 15 -1 20 -3 11 -2 217 1 225 1 3 0 10 -1 15 -2 11 -2 537
1 551 1 5 0 14 -1 19 -2 12 -2 208 1 215 1 3 0 10 -1 15 -7 32 -6 56 2 61 4 3
6 10 2 15 -5 9 -8 197 -3 224 1 6 0 15 -1 20 -2 6 -2 27 -1 48 2 32 -1 37 -21
38 -13 0 -283 1 -601 2 -507 2 -577 0 -578 -13 0 -8 -1 -479 -1 -1047 l-1
-1031 -24 -11 c-12 -6 -23 -7 -23 -2 0 9 -55 5 -71 -4 -5 -4 -9 -2 -9 2 0 5
-12 8 -27 7 -58 -5 -89 -5 -108 -1 -11 2 -34 1 -52 -3 -18 -4 -35 -5 -38 -2
-7 8 -55 9 -55 1 0 -3 -7 -6 -15 -6 -8 0 -15 4 -15 9 0 5 -8 4 -18 -1 -11 -6
-24 -6 -32 -1 -9 5 -19 5 -27 -2 -8 -6 -13 -7 -13 -1 0 6 -16 9 -35 6 -23 -2
-35 1 -36 9 -5 75 -3 138 6 138 7 0 7 3 0 8 -13 10 -14 152 0 152 6 0 7 3 0 8
-6 4 -10 149 -10 397 0 248 4 393 10 397 7 5 7 8 0 8 -6 0 -10 31 -10 73 0 39
5 75 10 79 7 5 7 8 0 8 -7 0 -10 140 -9 402 1 222 -1 408 -3 413 -4 13 -883
14 -891 1z"/>
<path d="M4093 6462 c-21 -3 -22 -8 -22 -95 1 -51 0 -117 0 -148 l-1 -56 -147
1 c-131 0 -148 -2 -148 -16 0 -9 -2 -19 -5 -21 -10 -11 5 -2362 15 -2362 6 0
16 -4 23 -8 7 -5 12 -4 12 2 0 7 8 7 24 1 13 -5 27 -6 30 -2 10 10 190 9 204
-1 6 -5 12 -6 12 -1 0 12 123 11 132 -1 5 -6 8 -6 8 1 0 8 17 10 53 7 28 -2
57 -4 62 -4 82 7 203 5 213 -2 6 -5 12 -6 12 -1 0 5 19 9 43 8 23 -1 47 1 52
3 11 4 11 95 0 113 -3 5 -3 10 2 10 10 0 9 93 -1 109 -4 6 -4 11 1 11 4 0 7
79 6 175 -1 101 2 177 8 180 5 4 9 1 9 -5 0 -6 4 -9 9 -5 17 10 71 13 71 3 0
-5 4 -6 10 -3 15 9 80 12 80 3 0 -4 12 -3 26 2 16 7 23 7 19 0 -4 -7 2 -7 19
0 15 5 28 6 31 0 3 -5 11 -7 18 -5 29 10 75 12 88 5 7 -5 21 -4 31 1 12 7 18
6 18 -1 0 -7 7 -7 21 1 17 9 20 8 14 -2 -5 -8 -4 -10 3 -5 18 11 82 13 82 3 0
-6 5 -6 13 0 6 5 23 7 37 3 14 -4 35 -3 47 1 12 5 25 4 28 0 3 -5 20 -6 38 -2
18 5 41 5 52 1 11 -4 23 -6 27 -3 16 9 78 9 78 0 0 -6 5 -6 13 0 6 5 23 7 37
3 14 -4 35 -3 47 1 12 5 25 4 28 0 3 -5 20 -6 38 -2 35 8 51 7 81 -5 11 -4 17
-4 14 2 -4 5 9 9 27 8 19 -1 35 3 37 10 7 22 1 573 -6 584 -5 8 -13 9 -25 3
-9 -5 -22 -6 -28 -3 -7 4 -29 6 -50 4 -51 -4 -54 -4 -85 1 -16 2 -28 0 -28 -5
0 -5 -5 -6 -12 -2 -15 9 -71 9 -86 0 -7 -4 -12 -3 -12 2 0 10 -30 9 -48 -2 -6
-4 -12 -3 -12 2 0 5 -12 7 -27 5 -16 -2 -34 -4 -40 -4 -7 1 -20 1 -28 1 -8 0
-22 0 -30 0 -44 0 -107 0 -117 0 -7 -1 -25 1 -40 3 -16 2 -28 0 -28 -5 0 -5
-5 -6 -11 -2 -16 10 -89 11 -89 1 0 -5 -6 -5 -12 -1 -19 12 -48 12 -48 1 0 -6
-5 -6 -12 -1 -16 11 -39 11 -55 1 -7 -5 -13 -4 -13 1 0 10 -30 9 -47 -1 -6 -4
-14 -3 -17 1 -6 10 -48 8 -65 -3 -6 -3 -11 -3 -11 2 0 4 -18 8 -40 9 -22 0
-37 -4 -33 -9 3 -5 -4 -4 -14 2 -11 6 -24 7 -28 3 -5 -4 -6 0 -2 9 3 9 0 22
-6 28 -6 6 -7 11 -1 11 5 0 8 51 7 125 -1 76 2 123 8 120 5 -4 9 -3 9 2 0 9
177 10 186 0 4 -3 15 -2 25 3 21 12 41 10 51 -5 5 -7 8 -7 8 0 0 9 46 12 75 5
6 -1 15 -1 20 0 31 8 55 7 55 -1 0 -6 5 -7 12 -3 17 11 129 11 151 1 9 -4 17
-4 17 0 0 4 64 7 142 6 175 -4 150 -4 233 0 39 1 78 -1 88 -6 9 -4 17 -4 17 0
0 4 64 7 142 6 79 -2 150 -3 158 -3 85 1 100 3 101 13 0 7 1 276 2 600 l2 587
-25 1 c-90 2 -2039 3 -2057 1z"/>
<path d="M6776 6460 c-2 -3 -3 -71 -2 -151 l1 -146 -73 1 c-41 1 -76 -2 -78
-6 -3 -5 -13 -4 -22 0 -14 7 -96 9 -123 3 -3 0 -5 -540 -5 -1198 l1 -1197 50
-3 c28 -2 55 -4 60 -3 118 5 203 4 213 -3 6 -5 12 -6 12 -1 0 12 123 11 132
-1 5 -6 8 -6 8 1 0 7 23 10 63 8 l63 -2 -2 54 c-1 35 2 52 9 47 6 -4 7 -1 1 8
-13 21 -13 172 0 181 8 6 8 8 0 8 -6 0 -11 11 -11 25 0 14 4 22 10 18 6 -4 7
-1 1 8 -13 21 -13 172 0 181 8 6 8 8 0 8 -6 0 -11 11 -11 25 0 14 4 22 10 18
6 -4 7 -1 1 8 -13 21 -13 172 0 181 8 6 8 8 0 8 -6 0 -11 11 -11 25 0 14 4 22
10 18 6 -4 7 -1 1 8 -13 21 -13 172 0 181 8 6 8 8 0 8 -6 0 -11 11 -11 25 0
14 4 22 10 18 6 -4 7 -1 1 8 -13 21 -13 172 0 181 8 6 8 8 0 8 -6 0 -11 11
-11 25 0 14 4 22 10 18 6 -4 7 -1 1 8 -13 21 -15 81 -2 73 7 -5 8 -2 2 7 -13
20 -13 109 0 110 48 4 94 3 109 -4 9 -4 17 -4 17 0 0 12 160 10 161 -2 1 -5 2
-140 3 -300 l1 -290 48 0 c26 0 47 -4 47 -8 0 -5 6 -5 13 0 16 10 107 10 107
0 0 -5 6 -5 13 0 21 13 66 9 69 -7 2 -8 3 -70 3 -137 0 -79 3 -123 10 -123 7
0 6 -3 -1 -8 -14 -9 -14 -224 1 -234 7 -5 6 -8 -1 -8 -7 0 -11 -15 -10 -37 l1
-38 58 0 c31 0 57 -3 57 -8 0 -4 5 -5 11 -1 17 10 109 12 109 2 0 -5 6 -6 12
-1 7 4 22 7 33 8 20 0 20 7 20 297 0 192 4 298 10 299 6 0 73 1 150 2 l140 2
0 295 c0 162 3 297 7 300 4 3 44 4 90 3 107 -4 96 -4 150 0 27 1 49 -2 51 -8
2 -5 3 -342 3 -747 -1 -484 2 -739 9 -742 6 -2 44 -3 85 -2 41 1 81 -2 88 -7
6 -5 12 -6 12 -1 0 11 250 11 268 0 6 -4 12 -4 12 1 0 12 124 10 132 -2 5 -6
8 -6 8 1 0 8 17 10 53 7 28 -2 57 -4 62 -4 82 7 203 5 213 -2 6 -5 12 -6 12
-1 0 12 123 11 132 -1 5 -6 8 -6 8 1 0 8 18 11 54 8 l53 -3 0 112 c-1 62 3
118 7 125 4 7 4 12 -1 12 -10 0 -10 61 0 76 3 6 3 14 0 18 -10 10 -11 86 -1
80 4 -3 4 5 -1 18 -4 13 -5 35 -1 49 4 15 5 31 1 37 -8 14 -6 336 3 350 4 7 4
12 -1 12 -10 0 -10 61 0 76 3 6 3 14 0 18 -10 10 -11 86 -1 80 4 -3 4 5 -1 18
-4 13 -5 35 -1 49 4 15 5 31 1 37 -8 14 -6 336 3 350 4 7 4 12 -1 12 -10 0
-10 66 0 76 3 4 3 12 0 18 -10 15 -11 86 -1 80 4 -3 4 5 -1 18 -4 13 -5 35 -1
49 4 15 5 31 1 37 -8 14 -6 336 3 350 4 7 4 12 -1 12 -10 0 -10 61 0 76 3 6 3
14 0 18 -10 10 -11 86 -1 80 4 -3 4 5 -1 18 -4 13 -5 35 -1 49 4 15 5 31 1 37
-3 5 -5 65 -5 131 2 106 0 121 -15 122 -25 1 -1444 1 -1466 0 -20 -1 -20 -8
-19 -288 0 -159 -2 -293 -4 -300 -2 -6 -12 -10 -23 -8 -10 2 -19 -1 -19 -6 0
-6 -6 -7 -12 -3 -18 11 -188 11 -195 1 -3 -5 -9 -4 -13 3 -5 8 -13 9 -21 4
-11 -7 -14 -65 -14 -304 l0 -295 -140 -1 c-77 0 -146 1 -152 4 -13 4 -13 28 0
49 4 6 3 14 -2 17 -10 6 -9 86 1 102 4 6 4 14 0 18 -11 12 -9 116 3 116 7 0 7
3 -1 8 -11 8 -13 130 -2 148 4 6 4 14 0 18 -4 4 -8 29 -8 54 -1 26 -2 52 -3
59 -1 10 -23 11 -56 3 -5 -1 -12 -1 -15 0 -16 7 -127 5 -137 -3 -9 -6 -13 -6
-13 1 0 6 -13 9 -28 7 -16 -2 -33 0 -38 3 -13 10 -12 302 1 294 6 -4 6 -1 0 9
-7 8 -11 70 -10 152 1 116 -2 137 -15 138 -85 3 -583 3 -584 -1z"/>
</g>
</svg>
