<svg viewBox="0 0 8 8" xmlns="http://www.w3.org/2000/svg" version="1.1"><path d="m1 1h1v1h-1z" fill="#ffffff"></path><path d="m2 1h1v1h-1z" fill="#ffffff"></path><path d="m5 1h1v1h-1z" fill="#ffffff"></path><path d="m6 1h1v1h-1z" fill="#ffffff"></path><path d="m1 2h1v1h-1z" fill="#ffffff"></path><path d="m2 2h1v1h-1z" fill="#ffffff"></path><path d="m5 2h1v1h-1z" fill="#ffffff"></path><path d="m6 2h1v1h-1z" fill="#ffffff"></path><path d="m1 3h1v1h-1z" fill="#ffffff"></path><path d="m2 3h1v1h-1z" fill="#ffffff"></path><path d="m5 3h1v1h-1z" fill="#ffffff"></path><path d="m6 3h1v1h-1z" fill="#ffffff"></path><path d="m1 4h1v1h-1z" fill="#ffffff"></path><path d="m2 4h1v1h-1z" fill="#ffffff"></path><path d="m5 4h1v1h-1z" fill="#ffffff"></path><path d="m6 4h1v1h-1z" fill="#ffffff"></path><path d="m1 5h1v1h-1z" fill="#ffffff"></path><path d="m2 5h1v1h-1z" fill="#ffffff"></path><path d="m5 5h1v1h-1z" fill="#ffffff"></path><path d="m6 5h1v1h-1z" fill="#ffffff"></path><path d="m1 6h1v1h-1z" fill="#ffffff"></path><path d="m2 6h1v1h-1z" fill="#ffffff"></path><path d="m5 6h1v1h-1z" fill="#ffffff"></path><path d="m6 6h1v1h-1z" fill="#ffffff"></path></svg>