<svg viewBox="0 0 256 256" xmlns="http://www.w3.org/2000/svg" version="1.1"><path d="m64 32h32v32h-32z" fill="#ffffff"></path><path d="m96 32h32v32h-32z" fill="#ffffff"></path><path d="m64 64h32v32h-32z" fill="#ffffff"></path><path d="m96 64h32v32h-32z" fill="#ffffff"></path><path d="m128 64h32v32h-32z" fill="#ffffff"></path><path d="m64 96h32v32h-32z" fill="#ffffff"></path><path d="m96 96h32v32h-32z" fill="#ffffff"></path><path d="m128 96h32v32h-32z" fill="#ffffff"></path><path d="m160 96h32v32h-32z" fill="#ffffff"></path><path d="m64 128h32v32h-32z" fill="#ffffff"></path><path d="m96 128h32v32h-32z" fill="#ffffff"></path><path d="m128 128h32v32h-32z" fill="#ffffff"></path><path d="m160 128h32v32h-32z" fill="#ffffff"></path><path d="m64 160h32v32h-32z" fill="#ffffff"></path><path d="m96 160h32v32h-32z" fill="#ffffff"></path><path d="m128 160h32v32h-32z" fill="#ffffff"></path><path d="m64 192h32v32h-32z" fill="#ffffff"></path><path d="m96 192h32v32h-32z" fill="#ffffff"></path></svg>